<svg xmlns="http://www.w3.org/2000/svg" viewBox="0 0 1073.76 209.09"><defs><style>.cls-1{fill:#fff;}.cls-2{fill:#ffca00;}</style></defs><g id="Layer_2" data-name="Layer 2"><g id="Layer_1-2" data-name="Layer 1"><g id="oq-sariq_2" data-name="oq-sariq 2"><path class="cls-1" d="M63.05,161.92q0,11.75-11.74,11.74H0V45.18H51Q62.4,45.18,62.4,57V90.08q0,6.57-4.11,10.18-.57.49-10,6.32,9.78,6,10.35,6.57Q63,117,63.05,123.74ZM43.27,92.46V61.35H19.21V99H34Zm.49,65V120.87l-9.44-6.24H19.21v42.86Z"/><path class="cls-1" d="M128.65,173.66H78.16V45.18H97.37V156.5h31.28Z"/><path class="cls-1" d="M205.16,173.66h-19l-3.86-24.38H158.2l-3.85,24.38h-19v-.33L160.26,45h20.19Zm-25.61-40.88-9.36-58-9.44,58Z"/><path class="cls-1" d="M279.14,161.92q0,11.75-11.75,11.74H227.33q-11.42,0-11.41-11.74V57q0-11.82,11.41-11.82h40.06q11.75,0,11.75,11.82V87.05H260V61.68H235.13v95.48H260v-27h19.13Z"/><path class="cls-1" d="M359,173.66H337.84l-24.39-57.31v57.31H294.24V45.18h19.21V99.53L334.8,45.18h21v.9l-26.11,61Z"/><path class="cls-1" d="M694.05,161.92q0,11.75-11.74,11.74H642.25q-11.41,0-11.41-11.74V57q0-11.82,11.41-11.82h40.06q11.75,0,11.74,11.82V87.05H674.92V61.68H650.05v95.48h24.87v-27h19.13Z"/><path class="cls-1" d="M773.93,161.92q0,11.75-11.66,11.74h-41.7q-11.42,0-11.41-11.74V57q0-11.82,11.41-11.82h41.7q11.65,0,11.66,11.82Zm-19.21-4.76V61.68H728.37v95.48Z"/><path class="cls-1" d="M853.4,149.44q0,11.33-6.73,17.77t-18.14,6.45H789.37V45.18h39.16q11.41,0,18.14,6.52t6.73,17.86Zm-19.29-3.2V72.43q0-10.76-11.25-10.75H808.58v95.48h13.79Q834.12,157.16,834.11,146.24Z"/><path class="cls-1" d="M921.54,173.66H868.26V45.18h52.79v17H887.47V99.69h28.9v16.66h-28.9v40.32h34.07Z"/><path class="cls-1" d="M1000.44,173.66h-20L959.23,114V102.4h18.88V61.68H953.89v112H934.68V45.18h51q11.57,0,11.57,11.82v46.71q0,8.13-5.5,10.51-3,1.23-12.48,1.23Z"/><path class="cls-1" d="M1073.76,161.92q0,11.75-11.66,11.74h-38.67q-11.58,0-11.58-11.74V131.3h19.22v26.19h23.48V132.28L1016,95.83a13.61,13.61,0,0,1-4.19-10.26V57q0-11.82,11.58-11.82h38.67q11.65,0,11.66,11.65V85.57h-19.21V61.35h-23.48V84.58l38.5,36.29a13.66,13.66,0,0,1,4.19,10.43Z"/><polygon class="cls-2" points="537.37 81.47 537.37 133.2 536.3 133.82 502.94 153.09 494.33 158.06 485.72 153.09 458.66 137.47 485.72 121.84 500.63 113.23 502.94 111.91 502.94 61.58 531.6 78.13 537.37 81.47"/><polygon class="cls-2" points="485.72 0 485.72 104.62 451.29 124.51 451.29 19.87 464.51 12.24 485.72 0"/><polygon class="cls-1" points="589.02 49.69 589.02 154.43 580.5 159.34 554.59 174.3 538.52 183.58 537.37 182.91 537.37 184.25 524.15 191.88 502.94 204.12 494.33 209.09 485.72 204.12 464.51 191.88 451.29 184.25 451.29 182.91 450.13 183.58 434.07 174.3 414.46 162.99 399.64 154.43 399.64 49.69 406.47 45.74 434.07 29.82 434.07 139.86 444.28 145.77 451.29 149.82 479.95 166.36 485.72 169.68 494.33 174.66 502.94 169.68 508.7 166.36 537.37 149.82 550.68 142.12 554.59 139.86 554.59 64.85 555.12 64.56 554.59 64.25 537.37 54.3 502.94 34.43 502.94 0 524.15 12.24 537.37 19.87 554.59 29.82 589.02 49.69"/></g></g></g></svg>